<?xml version="1.0" standalone="yes"?>
<svg xmlns="http://www.w3.org/2000/svg" width="480" height="480">
<path style="fill:#ffffff; stroke:none;" d="M0 0L0 480L45 480C40.6396 476.938 36.1778 474.541 33.108 469.985C25.6206 458.874 29 440.806 29 428C29 415.152 27.9476 401.79 29.1698 389C31.7093 362.422 43.1423 337.858 62 319C72.3354 308.665 83.7918 300.973 97 294.782C103.609 291.684 111.83 291.751 111.995 282.999C112.096 277.671 112.011 272.329 112 267C111.995 264.651 112.405 261.551 110.972 259.51C108.354 255.782 100.04 254.541 96 252.691C86.5998 248.387 77.9778 242.953 70 236.385C52.1546 221.693 38.7868 201.373 32.8843 179C28.0172 160.552 29 141.905 29 123C29 111.567 27.7685 99.3455 29.1852 88C30.2873 79.1742 36.6627 71.6375 45 68.7608C58.2326 64.1951 73.7389 73.7674 74.9066 88C77.7325 122.443 66.8952 161.503 90.0147 191C95.5911 198.115 103.152 205.378 112 208C112 193.725 110.218 178.107 112.439 164C115.669 143.483 129.037 124.279 147 113.876C156.708 108.254 166.594 107.162 177 104C169.138 85.1213 157.768 67.0978 148.219 49C144.926 42.7588 140.905 36.6918 138.548 30C134.267 17.8456 141.809 5.92242 153 1C148.531 -0.875153 142.809 0 138 0L107 0L0 0z"/>
<path style="fill:#000000; stroke:none;" d="M177 104C166.455 106.54 156.704 107.951 147 113.312C128.713 123.415 114.996 143.224 112.289 164C110.433 178.247 112 193.633 112 208C107.585 206.07 103.767 203.334 100 200.334C69.4092 175.975 75 134.671 75 100C75 94.5 75.7535 88.3381 74.2106 83C71.2094 72.6161 59.6133 65.6804 49 67.4684C39.1104 69.1344 31.1071 75.8578 29.3287 86C27.4386 96.7791 29 109.063 29 120C29 141.936 27.5557 163.813 34.3441 185C41.9008 208.584 57.5155 229.317 78 243.254C85.4257 248.306 93.6068 252.403 102 255.575C106.134 257.137 111.031 257.945 111.852 263.019C113.148 271.03 114.759 287.659 105.995 290.982C95.029 295.139 84.5703 299.827 75 306.745C42.502 330.237 29 366.189 29 405L29 444C29 450.717 27.8998 458.561 30.108 465C34.6096 478.127 50.5606 484.222 63 478C75.1147 471.94 75 460.764 75 449L75 416C75 392.681 77.3521 370.851 94.0903 353.004C99.3945 347.348 105.797 343.511 112 339C112.022 346.986 113.611 354.589 116.604 362C125.232 383.363 144.275 399.904 167 404.55C180.307 407.271 194.479 406 208 406L261 406C283.905 406 308.84 409.217 330 398.63C352.105 387.57 367.931 363.875 368 339C374.203 343.511 380.605 347.348 385.91 353.004C402.36 370.544 405 392.028 405 415L405 450C405 460.933 405.023 471.603 416 477.583C428.47 484.375 445.275 478.465 449.892 465C452.006 458.836 451 451.427 451 445L451 409C451 394.241 450.658 380.318 446.573 366C436.603 331.063 409.758 304.106 376 291.586C373.616 290.702 370.492 289.978 369.028 287.698C367.636 285.529 368.005 282.449 368 280C367.989 274.517 367.272 268.436 368.148 263.019C368.969 257.945 373.866 257.137 378 255.575C386.393 252.403 394.574 248.306 402 243.254C422.47 229.327 438.1 208.578 445.656 185C452.432 163.855 451 141.895 451 120C451 109.065 452.564 96.7769 450.671 86C448.904 75.9379 440.789 69.1175 431 67.4684C420.387 65.6804 408.791 72.6161 405.789 83C404.247 88.3381 405 94.4999 405 100C405 134.671 410.591 175.975 380 200.334C376.233 203.334 372.415 206.07 368 208C368 193.405 369.831 177.423 367.561 163C364.161 141.398 350.127 122.616 331 112.309C321.988 107.453 312.738 106.345 303 104C310.44 91.2656 316.715 77.8916 323.861 65C328.436 56.7472 333.019 48.4359 337.247 40C340.102 34.3032 343.214 28.5792 342.895 22C342.006 3.6666 319.777 -7.35629 305.015 4.39352C298.132 9.87167 295.269 18.5501 291.139 26C281.609 43.192 272.66 60.7095 263.309 78C260.258 83.6405 257.368 89.3624 254.309 95C252.827 97.7296 251.601 101.312 248.787 102.972C245.821 104.722 241.301 104.022 238 103.999C225.992 103.917 222.085 88.2209 217.219 79C208.058 61.6385 199.063 44.1006 189.424 27C185.077 19.2872 182.135 10.0837 174.985 4.39352C160.223 -7.35626 137.994 3.6666 137.105 22C136.787 28.56 139.874 34.3303 142.756 40C147.03 48.4089 151.565 56.7495 156.139 65C163.285 77.8922 169.561 91.2676 177 104z"/>
<path style="fill:#ffffff; stroke:none;" d="M167 0C170.822 2.58652 174.646 4.50204 177.815 8.01544C185.414 16.4407 190.077 28.9624 195.258 39C202.54 53.1068 210.46 66.8925 217.742 81C220.342 86.0384 222.984 91.0193 225.691 96C226.968 98.3475 228.034 101.469 230.39 102.972C233.223 104.779 237.802 104.001 241 104C243.454 103.999 246.476 104.402 248.787 103.397C251.715 102.123 252.891 98.6074 254.309 96C257.372 90.3641 260.258 84.6408 263.309 79C273.194 60.7215 283.211 42.4658 292.742 24C297.594 14.5993 302.002 4.26669 313 1C308.531 -0.875153 302.809 0 298 0L269 0L167 0M327 0C334.274 6.1192 341.449 10.6679 342.685 21C343.844 30.6898 336.33 40.9379 331.861 49C321.991 66.8048 310.821 85.2205 303 104C313.051 107.054 322.612 108.027 332 113.428C350.465 124.051 364.226 142.815 367.561 164C369.781 178.107 368 193.725 368 208C376.848 205.378 384.409 198.115 389.985 191C413.829 160.58 400.8 122.095 405.185 87C406.969 72.7211 422.987 64.0243 436 69.1188C449.202 74.2873 451 86.6122 451 99C451 125.319 453.885 153.343 447.116 179C440.407 204.429 424.173 226.472 403 241.842C395.372 247.379 386.777 251.788 378 255.189C373.595 256.896 368.558 257.5 368.059 263.019C367.524 268.918 367.988 275.076 368 281C368.005 283.315 367.577 286.445 369.028 288.44C370.504 290.47 373.775 291.131 376 291.953C381.139 293.852 386.159 296.067 391 298.64C404.155 305.632 416.064 315.494 425.536 327C439.985 344.551 448.671 366.399 450.83 389C451.928 400.484 451 412.465 451 424C451 442.635 456.874 470.707 435 479C439.469 480.875 445.191 480 450 480L480 480L480 0L327 0M217 360L217 284C217 271.125 216.041 257.831 217.093 245C218.009 233.845 228.791 224.08 240 224.08C251.209 224.08 261.991 233.845 262.907 245C263.959 257.831 263 271.125 263 284L263 360C279.357 360 303.659 364.574 315.787 350.96C325.629 339.911 322 320.655 322 307L322 203C322 189.733 325.365 171.147 316.468 160.04C307.231 148.509 292.072 151 279 151C246.461 151 213.496 149.448 181 151.04C170.093 151.575 161.437 159.608 158.9 170C157.254 176.742 158 184.109 158 191L158 227L158 317C158 330.505 155.967 345.172 168.004 354.468C180.345 363.998 202.354 360 217 360M111 339C104.822 343.492 98.3571 347.266 93.1736 353.004C75.0664 373.048 75 397.58 75 423C75 441.264 81.4744 471.824 59 479C62.6987 480.552 67.0172 480 71 480L91 480L165 480L421 480C415.782 476.469 410.587 473.826 407.417 468C404.394 462.442 405 456.102 405 450L405 419C405 393.269 403.525 367.718 382.996 349.174C378.49 345.103 373.343 341.844 368 339C367.934 346.989 366.042 354.637 362.988 362C354.41 382.686 335.787 398.783 314 404.102C301.969 407.039 289.285 406 277 406L219 406C195.75 406 170.123 409.376 149 397.56C133.374 388.819 121.532 374.784 115.436 358C113.218 351.894 113.465 344.821 111 339z"/>
</svg>
